<?xml version="1.0" encoding="UTF-8"?>
<svg version="1.1" xmlns="http://www.w3.org/2000/svg" width="210" height="210">
<path d="M0 0 C69.3 0 138.6 0 210 0 C210 69.3 210 138.6 210 210 C140.7 210 71.4 210 0 210 C0 140.7 0 71.4 0 0 Z " fill="#FEFEFE" transform="translate(0,0)"/>
<path d="M0 0 C4.58298202 3.02060179 7.16153606 6.59831739 8.75 11.8125 C9.05298155 15.26350831 9.04373196 18.70464344 9.04052734 22.16723633 C9.04724457 23.20850174 9.05396179 24.24976715 9.06088257 25.32258606 C9.07987306 28.76328307 9.0837874 32.2037851 9.0859375 35.64453125 C9.09236493 38.03960754 9.09909325 40.43468305 9.10610962 42.82975769 C9.1180852 47.85079773 9.12179017 52.87176895 9.12060547 57.89282227 C9.12040232 64.31878245 9.14769914 70.74430016 9.18214989 77.17015553 C9.20441555 82.11763017 9.20844309 87.06499831 9.20738602 92.01251793 C9.20974267 94.38113619 9.21856977 96.74975735 9.23405075 99.11832619 C9.2537021 102.43572359 9.24787513 105.75216647 9.23583984 109.06958008 C9.24707886 110.04284241 9.25831787 111.01610474 9.26989746 112.01885986 C9.21394706 118.1047927 8.23992721 122.74102391 4.75 127.8125 C0.35291062 131.99509722 -3.10483531 133.1349847 -9.1953125 133.0234375 C-13.92791884 132.53758058 -17.03040809 130.29507414 -20.0625 126.8125 C-22.74610017 123.13213406 -23.37374087 120.70809702 -23.39717102 116.27812195 C-23.40432632 115.34869781 -23.41148163 114.41927368 -23.41885376 113.46168518 C-23.42288712 111.93510536 -23.42288712 111.93510536 -23.42700195 110.37768555 C-23.43357315 109.30423889 -23.44014435 108.23079224 -23.44691467 107.12481689 C-23.46665389 103.5662835 -23.47831096 100.00779229 -23.48828125 96.44921875 C-23.49235678 95.23484446 -23.4964323 94.02047016 -23.50063133 92.76929665 C-23.5214935 86.34335118 -23.53579531 79.91742709 -23.54516602 73.49145508 C-23.55623809 66.85004149 -23.59064716 60.20897042 -23.63033772 53.56766033 C-23.65646311 48.4641507 -23.66485419 43.36072128 -23.66844749 38.25715065 C-23.67332301 35.80872143 -23.68496426 33.36029601 -23.70348549 30.91193199 C-23.72779201 27.48618305 -23.7269271 24.06130654 -23.7199707 20.63549805 C-23.73278076 19.62385086 -23.74559082 18.61220367 -23.75878906 17.56990051 C-23.71602973 11.79450759 -23.1765215 8.36060428 -19.25 3.8125 C-13.41048679 -1.45730461 -7.39911314 -2.70352211 0 0 Z " fill="#F8AC03" transform="translate(154.25,39.1875)"/>
<path d="M0 0 C5.590832 2.70644966 8.77941999 6.20520918 11 12 C11.46036972 16.414066 11.44411336 20.81116695 11.43359375 25.24609375 C11.4388356 26.530569 11.44407745 27.81504425 11.44947815 29.13844299 C11.45838647 31.85094055 11.45601268 34.56314333 11.44604492 37.27563477 C11.43455983 40.73681454 11.45476935 44.19697333 11.48396206 47.65801907 C11.50681277 50.97909651 11.49985361 54.29993975 11.49609375 57.62109375 C11.51294472 59.47449623 11.51294472 59.47449623 11.53013611 61.36534119 C11.47550332 68.12869264 11.10975293 72.53091537 7 78 C3.54531742 81.30227011 -0.31693192 83.28815026 -5.125 83.5 C-10.67460197 82.78392233 -14.153175 81.20299615 -17.8125 77 C-20.79734283 72.90650126 -21.13030662 70.1853769 -21.17700195 65.24682617 C-21.18983719 64.0651738 -21.20267242 62.88352142 -21.21589661 61.6660614 C-21.22328354 60.38794083 -21.23067047 59.10982025 -21.23828125 57.79296875 C-21.246353 56.47968094 -21.25442474 55.16639313 -21.26274109 53.81330872 C-21.2777545 51.03170908 -21.28759893 48.25013486 -21.29516602 45.46850586 C-21.30622345 41.91420015 -21.34062072 38.3605217 -21.38033772 34.80643749 C-21.4128466 31.40614011 -21.41728603 28.00590951 -21.42578125 24.60546875 C-21.44328934 23.33342087 -21.46079742 22.06137299 -21.47883606 20.7507782 C-21.45188587 9.77834055 -21.45188587 9.77834055 -17 5 C-11.465633 0.12448621 -7.33622427 -1.12453073 0 0 Z " fill="#E37503" transform="translate(110,89)"/>
<path d="M0 0 C4.27770949 2.49533054 7.37074964 5.73548134 9.25 10.3125 C9.95077817 15.25054153 9.80558401 19.20133198 7.5625 23.6875 C2.92381655 28.95303257 -0.23031218 31.05178238 -7.125 31.5625 C-11.73491429 31.24457488 -14.86139066 30.17565639 -18.19921875 26.8828125 C-22.01740225 22.48479025 -23.06742415 19.18135834 -22.9609375 13.3671875 C-22.47144252 8.59914383 -20.21819043 5.52137323 -16.6875 2.5 C-11.40172709 -1.43621387 -6.36400415 -1.59100104 0 0 Z " fill="#E37606" transform="translate(69.75,140.6875)"/>
<path d="M0 0 C1.99146684 1.99146684 2.60348481 3.21899622 3.6875 5.75 C6.70244342 11.8800141 11.08929336 15.45931075 17.4375 17.875 C18.613125 18.24625 19.78875 18.6175 21 19 C21 19.33 21 19.66 21 20 C14.07 20 7.14 20 0 20 C0 13.4 0 6.8 0 0 Z " fill="#0B0B0B" transform="translate(0,190)"/>
<path d="M0 0 C0.33 0 0.66 0 1 0 C1 6.6 1 13.2 1 20 C-5.6 20 -12.2 20 -19 20 C-17.00853316 18.00853316 -15.78100378 17.39651519 -13.25 16.3125 C-6.15399355 12.83532806 -2.65834797 7.23661392 0 0 Z " fill="#0B0B0B" transform="translate(209,190)"/>
<path d="M0 0 C6.6 0 13.2 0 20 0 C20 6.93 20 13.86 20 21 C18.43920907 18.65881361 17.41672301 16.7207175 16.3125 14.1875 C12.8149746 7.14063402 7.20414243 3.64641967 0 1 C0 0.67 0 0.34 0 0 Z " fill="#0B0B0B" transform="translate(190,0)"/>
<path d="M0 0 C6.27 0 12.54 0 19 0 C17.74179908 2.51640184 16.85906031 2.61551938 14.3125 3.6875 C7.60236252 6.92231538 3.95369184 12.27214636 1 19 C0.67 19 0.34 19 0 19 C0 12.73 0 6.46 0 0 Z " fill="#080808" transform="translate(0,0)"/>
</svg>
