<?xml version="1.0" encoding="UTF-8"?>
<svg version="1.1" xmlns="http://www.w3.org/2000/svg" width="320" height="320">
<path d="M0 0 C12.44746029 8.61102906 22.91770442 20.86786033 25.96484375 36.1328125 C26.06346794 38.46657186 26.10411667 40.80296495 26.11201477 43.13879395 C26.11569146 43.84428297 26.11936815 44.54977199 26.12315625 45.27663946 C26.13416967 47.64081392 26.138033 50.00494438 26.1418457 52.36914062 C26.14811231 54.06452574 26.15475929 55.75990949 26.16175842 57.45529175 C26.1827844 63.0248723 26.19316205 68.59445307 26.203125 74.1640625 C26.20717363 76.08428461 26.21129059 78.00450658 26.21547508 79.92472839 C26.23452653 88.95039051 26.24875553 97.97604446 26.25708705 107.00172281 C26.2668482 117.40335214 26.29313858 127.80476803 26.33358794 138.20632219 C26.36381049 146.25578248 26.37856189 154.30518181 26.38186806 162.3546977 C26.38421228 167.15730228 26.39309012 171.95967884 26.41832924 176.76222229 C26.44172144 181.28653955 26.44579869 185.81048047 26.43556786 190.33484268 C26.43507502 191.98752728 26.44132027 193.6402311 26.4551239 195.29285812 C26.57118792 210.02325325 23.6015483 221.01770978 14.96484375 233.1328125 C13.85109375 234.710625 13.85109375 234.710625 12.71484375 236.3203125 C3.97533785 245.25844353 -6.92550288 251.54336343 -19.2578125 253.7734375 C-21.13012926 254.07151614 -21.13012926 254.07151614 -23.03515625 255.1328125 C-25.6776615 255.21741059 -28.29242986 255.24072983 -30.93457031 255.21801758 C-31.75118134 255.21483521 -32.56779236 255.21165283 -33.40914917 255.20837402 C-36.12309982 255.19573865 -38.83689536 255.17485017 -41.55078125 255.15234375 C-42.48027336 255.14538671 -43.40976547 255.13842968 -44.36742401 255.13126183 C-49.29840414 255.09379724 -54.22927831 255.04977885 -59.16015625 255.00073242 C-64.2234013 254.95169226 -69.28649056 254.92527932 -74.34991837 254.90430164 C-78.26580559 254.8837778 -82.18139354 254.84584038 -86.0970993 254.803442 C-87.96108949 254.78624428 -89.82515127 254.7754399 -91.68921661 254.77149391 C-105.21383773 254.73451565 -117.98324394 253.90845917 -129.78515625 246.5078125 C-130.749375 245.91742188 -131.71359375 245.32703125 -132.70703125 244.71875 C-135.03515625 243.1328125 -135.03515625 243.1328125 -137.03515625 241.1328125 C-140.63382411 241.47406549 -143.10980368 243.38033901 -146.03515625 245.3828125 C-160.05785951 254.30802389 -172.34891965 255.90267085 -188.703125 253.62109375 C-194.58147243 252.30549982 -199.72238184 250.04583471 -204.9765625 247.12109375 C-207.10531614 245.91641916 -207.10531614 245.91641916 -210.03515625 246.1328125 C-211.76506695 247.43227677 -211.76506695 247.43227677 -213.46508789 249.23803711 C-214.13911148 249.91551498 -214.81313507 250.59299286 -215.50758362 251.29100037 C-216.59050941 252.40185753 -216.59050941 252.40185753 -217.6953125 253.53515625 C-218.44098984 254.2874501 -219.18666718 255.03974396 -219.9549408 255.81483459 C-222.34300859 258.22637042 -224.72071967 260.64780857 -227.09765625 263.0703125 C-229.47984211 265.48751287 -231.86412519 267.90259092 -234.25108337 270.31507874 C-235.73778892 271.81881289 -237.22140329 273.32561048 -238.70167542 274.8356781 C-239.70798256 275.85662315 -239.70798256 275.85662315 -240.73461914 276.89819336 C-241.32513565 277.4999791 -241.91565216 278.10176483 -242.52406311 278.7217865 C-245.79122931 281.77259543 -249.19081722 281.5957295 -253.48046875 281.52734375 C-257.01336637 280.98174335 -258.76666891 279.83765577 -261.02734375 277.10546875 C-263.04772553 273.15084551 -263.05773027 269.39918092 -262.03515625 265.1328125 C-260.40440409 262.34492598 -258.39276503 260.31654124 -256.03515625 258.1328125 C-254.36569551 256.4689446 -252.69938449 254.80191403 -251.03515625 253.1328125 C-250.05615511 252.15348034 -249.076983 251.17431905 -248.09765625 250.1953125 C-247.34355469 249.44121094 -247.34355469 249.44121094 -246.57421875 248.671875 C-239.72786458 241.82552083 -232.88151042 234.97916667 -226.03515625 228.1328125 C-226.99710899 225.02496519 -228.00127278 222.19634401 -229.53515625 219.3203125 C-235.32766309 207.01123547 -234.51478657 191.07907302 -230.375 178.39453125 C-224.32977592 163.67802366 -214.74564501 152.95532246 -200.22265625 146.1953125 C-185.80829806 140.23710478 -172.91126894 140.71323854 -158.03515625 144.1328125 C-158.02057373 143.48957031 -158.00599121 142.84632813 -157.9909668 142.18359375 C-157.66378804 129.21667896 -156.99486171 116.79067234 -154.03515625 104.1328125 C-153.37515625 104.1328125 -152.71515625 104.1328125 -152.03515625 104.1328125 C-151.93074219 103.40449219 -151.82632813 102.67617187 -151.71875 101.92578125 C-149.46777999 92.72896094 -139.97780348 82.86255896 -132.15087891 77.95019531 C-121.69487658 72.02052485 -112.43562152 68.76404072 -100.34765625 68.9453125 C-99.51943359 68.94595703 -98.69121094 68.94660156 -97.83789062 68.94726562 C-93.74942076 68.97672618 -90.04279069 69.25203786 -86.03515625 70.1328125 C-86.05872192 68.96262573 -86.05872192 68.96262573 -86.08276367 67.76879883 C-86.14594532 64.16104678 -86.18440785 60.55341175 -86.22265625 56.9453125 C-86.24779297 55.71876953 -86.27292969 54.49222656 -86.29882812 53.22851562 C-86.43945134 35.46311639 -81.6921376 21.23313255 -69.28515625 8.28125 C-51.00252085 -9.17612755 -21.89918898 -13.47208794 0 0 Z " fill="#4184F3" transform="translate(278.03515625,22.8671875)"/>
<path d="M0 0 C0 0.99 0 1.98 0 3 C0.804375 3.20625 1.60875 3.4125 2.4375 3.625 C15.5853722 8.69961734 25.0726184 19.46957671 31 32 C33.88136773 38.76343005 34.51399391 44.93876089 34.4375 52.25 C34.42614014 53.77016724 34.42614014 53.77016724 34.41455078 55.32104492 C34.14693991 67.52273331 30.87921994 76.87322953 24 87 C23.59523437 87.68578125 23.19046875 88.3715625 22.7734375 89.078125 C18.25557848 96.11822434 11.10847816 99.98156205 4 104 C3.06285156 104.55429687 2.12570313 105.10859375 1.16015625 105.6796875 C-10.32794348 111.51438951 -26.29048978 110.61275519 -38.4140625 107 C-42.06847048 105.58681504 -45.51930122 103.89319686 -48.94140625 101.98828125 C-51.07015989 100.78360666 -51.07015989 100.78360666 -54 101 C-55.7299107 102.29946427 -55.7299107 102.29946427 -57.42993164 104.10522461 C-58.10395523 104.78270248 -58.77797882 105.46018036 -59.47242737 106.15818787 C-60.55535316 107.26904503 -60.55535316 107.26904503 -61.66015625 108.40234375 C-62.40583359 109.1546376 -63.15151093 109.90693146 -63.91978455 110.68202209 C-66.30785234 113.09355792 -68.68556342 115.51499607 -71.0625 117.9375 C-73.44468586 120.35470037 -75.82896894 122.76977842 -78.21592712 125.18226624 C-79.70263267 126.68600039 -81.18624704 128.19279798 -82.66651917 129.7028656 C-83.67282631 130.72381065 -83.67282631 130.72381065 -84.69946289 131.76538086 C-85.2899794 132.3671666 -85.88049591 132.96895233 -86.48890686 133.588974 C-89.75607306 136.63978293 -93.15566097 136.462917 -97.4453125 136.39453125 C-100.97821012 135.84893085 -102.73151266 134.70484327 -104.9921875 131.97265625 C-107.01256928 128.01803301 -107.02257402 124.26636842 -106 120 C-104.36924784 117.21211348 -102.35760878 115.18372874 -100 113 C-98.33053926 111.3361321 -96.66422824 109.66910153 -95 108 C-94.02099886 107.02066784 -93.04182675 106.04150655 -92.0625 105.0625 C-91.55976562 104.55976563 -91.05703125 104.05703125 -90.5390625 103.5390625 C-83.69270833 96.69270833 -76.84635417 89.84635417 -70 83 C-70.96195274 79.89215269 -71.96611653 77.06353151 -73.5 74.1875 C-79.29250684 61.87842297 -78.47963032 45.94626052 -74.33984375 33.26171875 C-68.29461967 18.54521116 -58.71048876 7.82250996 -44.1875 1.0625 C-29.5885183 -5.02389495 -14.92718311 -5.46871455 0 0 Z " fill="#FABB03" transform="translate(122,168)"/>
<path d="M0 0 C1.22976562 -0.01160156 1.22976562 -0.01160156 2.484375 -0.0234375 C3.28617188 -0.02085938 4.08796875 -0.01828125 4.9140625 -0.015625 C5.62771973 -0.01336914 6.34137695 -0.01111328 7.07666016 -0.00878906 C9.375 0.25 9.375 0.25 15.375 2.25 C15.375 62.64 15.375 123.03 15.375 185.25 C-22.87329157 185.25 -22.87329157 185.25 -36.45703125 172.53515625 C-36.84246094 172.11105469 -37.22789062 171.68695313 -37.625 171.25 C-36.15242074 168.0642716 -34.3305768 165.38354409 -32.25 162.5625 C-22.44297268 148.67770664 -21.15968754 133.85487277 -22.625 117.25 C-24.67535136 105.75042833 -32.65984291 94.55428137 -41.625 87.25 C-45.54109367 84.62512607 -49.53952135 82.16353428 -53.86328125 80.26953125 C-55.625 79.25 -55.625 79.25 -56.625 76.25 C-57.56147941 62.40855056 -56.99678699 48.7170778 -53.625 35.25 C-52.965 35.25 -52.305 35.25 -51.625 35.25 C-51.52058594 34.52167969 -51.41617188 33.79335937 -51.30859375 33.04296875 C-49.05762374 23.84614844 -39.56764723 13.97974646 -31.74072266 9.06738281 C-21.32891698 3.16277657 -12.0373378 -0.11464131 0 0 Z " fill="#34A753" transform="translate(177.625,91.75)"/>
<path d="M0 0 C14.69930397 4.89976799 27.01055215 12.65157249 34.41015625 26.671875 C39.25203283 36.89204596 40.2905371 45.44622754 40.22705078 56.66796875 C40.2264858 58.03858939 40.22680492 59.40921064 40.22793579 60.77983093 C40.22850692 64.47970621 40.21679173 68.17945039 40.20278788 71.87929535 C40.19024028 75.75367051 40.18910685 79.62804906 40.18673706 83.50244141 C40.18053409 90.82976743 40.16413937 98.1570334 40.14403808 105.48433304 C40.12164216 113.8301796 40.11067638 122.17602911 40.10064721 130.52189827 C40.07977202 147.68130616 40.04311066 164.84063138 40 182 C26.8 182 13.6 182 0 182 C0 121.94 0 61.88 0 0 Z " fill="#1967D1" transform="translate(193,95)"/>
<path d="M0 0 C13.41288595 4.34043966 22.55998264 13.75649154 29.4921875 25.8125 C33.2277733 33.70948966 34.52895441 40.50884551 34.4375 49.25 C34.42992676 50.26344482 34.42235352 51.27688965 34.41455078 52.32104492 C34.07479799 67.81203617 28.40065707 79.60880417 18 91 C9.38792206 85.17418257 5.41272443 75.4715468 2 66 C1.65179199 65.06357666 1.30358398 64.12715332 0.94482422 63.16235352 C-0.67346151 57.38793015 -0.24422021 51.35354097 -0.1953125 45.41015625 C-0.1924826 44.11049423 -0.18965271 42.81083221 -0.18673706 41.4717865 C-0.17914655 38.03750745 -0.15953823 34.60340093 -0.1373291 31.16918945 C-0.11677121 27.65643649 -0.1077142 24.14365531 -0.09765625 20.63085938 C-0.07628736 13.75383594 -0.04220764 6.87692628 0 0 Z " fill="#E84434" transform="translate(122,171)"/>
</svg>
